<svg width="82" height="108" viewBox="0 0 82 108" fill="none" xmlns="http://www.w3.org/2000/svg">
<g clip-path="url(#clip0_7_10)">
<path fill-rule="evenodd" clip-rule="evenodd" d="M22.8867 107.6C41.7593 107.287 41.5281 98.638 41.6653 88.4901C27.5 88 15.3884 89.5924 13 74.5C10.6355 59.558 35.2304 54.7164 37.2036 54.6578C13.7667 35.6526 8.92883 23.2439 38.7992 24.2187C56.576 2.12281 27.267 -2.12711 19.8825 6.83617C62.2295 14.1609 8.60562 12.7971 5.14302 21.7093C4.27047 38.0777 18.2615 46.1008 24.0197 50.7683C-16.5 61 2.42831 97.0617 26.1849 97.0617C32.8739 97.0617 29.4879 103.703 22.8867 107.6Z" fill="white"/>
<path fill-rule="evenodd" clip-rule="evenodd" d="M58.8397 107.6C39.967 107.287 40.1982 98.638 40.061 88.4901C54.2263 88 66.338 89.5924 68.7263 74.5C71.0909 59.558 46.4959 54.7164 44.5227 54.6578C67.9596 35.6526 72.7975 23.2439 42.9271 24.2187C25.1503 2.12281 54.4593 -2.12711 61.8439 6.83617C19.4968 14.1609 73.1207 12.7971 76.5833 21.7093C77.4558 38.0777 63.4648 46.1008 57.7067 50.7683C98.2263 61 79.298 97.0617 55.5415 97.0617C48.8524 97.0617 52.2384 103.703 58.8397 107.6Z" fill="white"/>
<path d="M44.4608 39.5074C43.8863 37.5816 37.7251 37.4152 37.1009 39.5074C36.4375 41.7311 39.2037 45.9266 40.7809 45.9266C42.358 45.9266 45.0353 41.4332 44.4608 39.5074Z" fill="white" stroke="white"/>
</g>
<defs>
<clipPath id="clip0_7_10">
<rect width="82" height="108" fill="white"/>
</clipPath>
</defs>
</svg>
