<svg width="48" height="48" viewBox="0 0 48 48" fill="none" xmlns="http://www.w3.org/2000/svg">
<circle cx="157" cy="157" r="157" fill="#7134A9"/>
<path d="M158.5 240C154.5 278.5 143.592 279.74 202.446 286.24C173.34 271.24 168 253.126 178 249.5C284 211.063 203.728 167.74 203 143.24C202.137 114.24 258.446 75.2115 181.446 61.145C162.756 57.7306 189.446 39.1449 216.052 33.74C216.052 33.74 181.426 23.2378 166.447 30.6449C148.586 39.4768 150.15 51.9337 158.447 75.0001C240 81.0001 183.946 110.5 183.946 143.24C183.946 171.8 267.5 208.5 158.5 240Z" fill="white"/>
<path d="M158.5 240C162.5 278.5 173.301 279.74 114.447 286.24C143.553 271.24 148.893 253.126 138.893 249.5C32.8932 211.063 113.165 167.74 113.893 143.24C114.756 114.24 58.4465 75.2114 135.447 61.1449C154.137 57.7305 127.447 39.1449 100.841 33.74C100.841 33.74 135.467 23.2378 150.446 30.6449C168.307 39.4767 166.744 51.9337 158.447 75.0001C76.8932 81.0001 132.946 110.5 132.946 143.24C132.946 171.8 49.5 208.5 158.5 240Z" fill="white"/>
</svg>
