<?xml version="1.0" encoding="utf-8"?>
<!-- Generator: Adobe Illustrator 25.3.1, SVG Export Plug-In . SVG Version: 6.00 Build 0)  -->
<svg version="1.1" id="Layer_1" xmlns="http://www.w3.org/2000/svg" xmlns:xlink="http://www.w3.org/1999/xlink" x="0px" y="0px"
	 viewBox="0 0 24 27.4" style="enable-background:new 0 0 24 27.4;" xml:space="preserve">
<style type="text/css">
	.st0{fill:#A04D32;}
	.st1{fill:#77AA99;}
	.st2{fill:#314B49;stroke:#314B49;stroke-width:0.1268;stroke-linecap:round;stroke-linejoin:round;stroke-miterlimit:15.1181;}
	.st3{fill:#314B49;stroke:#314B49;stroke-width:8.451486e-02;stroke-miterlimit:15.1181;}
	.st4{fill:#314B49;}
	.st5{fill:#796958;}
	.st6{fill:#FFFFFF;}
	.st7{opacity:0.26;enable-background:new    ;}
	.st8{opacity:0.18;fill:#FFFFFF;enable-background:new    ;}
	.st9{opacity:0.27;fill:#FFFFFF;enable-background:new    ;}
</style>
<path class="st0" d="M23.6,10.3c0-0.5-0.5-0.7-1-0.4c-1.2-0.2-2.4-0.1-3-0.2c-1.3-0.2-2.4-0.9-2.4-0.9c0.2-0.2,0.1-0.7-0.9-0.7
	C16,8.1,15.7,8,15.4,7.8c0.1-0.2,0-0.5,0-0.5c0.4-0.1,0.5-0.6,0.3-1c0.5,0,0.4-0.8,0.4-1.1c0.4-0.2,0.5-0.6,0.3-1
	c0.5-0.1,0.5-0.7,0.5-1.1c0.5,0,0.4-0.9,0.4-1.1c0.4-0.3,0.3-0.7,0.4-1.1c0.3-0.5-0.1-0.7-0.4-0.1c-0.3,0.5-0.6,0.7-0.6,1.1
	c0.1,0.2-1,0.5-0.6,1.2c-0.2,0.3-0.8,0.7-0.6,1.1C15.4,4.5,14.7,5,15,5.5c-0.7,0.5-0.6,0.6-0.5,1C14.3,6.6,14.1,6.8,14,7
	c-0.2-0.3-0.4-0.7-0.4-1.4c0-0.6-1,0.1-1,1.1c0,0.1,0,0.2,0,0.3c-0.4,0-0.8,0.1-1.4,0.3c0,0,0,0,0,0.1c0-0.1,0-0.2,0-0.3
	c-0.1-0.6-0.8-1.6-1.2-0.4c-0.2,0.4-0.3,0.7-0.4,1c0,0-0.1,0-0.2,0.1C8.9,8,8.7,8.9,7.1,9.4C6.6,9.6,5.9,9.7,4.9,9.8
	C3.3,10,0.2,12.7,0,15.4c0,0.7,0.1,2.3,0.6,3.8l0,0l0,0c0,0,0,0,0,0.1c0,0.1,0.1,0.2,0.2,0.3c0.3,0.7,0.8,1.3,1.3,1.7
	c0.3,0.2,0.6,0.4,0.7,0.5c1,1.6,3.1,3.8,7.1,2.5c6.1-1.7,9.5,2.3,9.9,2.6c0.6,0.6-1.5-5-5.8-7.6c-2.6-1.4-1-3.8-0.8-4.7
	c0,0,2.1,1.4,3.6-0.8c1.4,0.3,2.3-0.2,3.4,0.2c0.7,0.3,3.7,0.1,2.6-1.5c0.7-0.5,0.8-0.3,1.1-1C24.1,10.7,23.7,10.5,23.6,10.3
	L23.6,10.3z M11.7,8C11.7,8,11.7,8,11.7,8C11.7,8,11.7,8,11.7,8L11.7,8z M9.4,8.8l0,0.2c0-0.1,0-0.3,0-0.4C9.4,8.6,9.4,8.7,9.4,8.8z
	 M11.2,7.7c0.1,0.2,0.3,0.4,0.3,0.4S11.4,7.9,11.2,7.7z"/>
<path class="st1" d="M2.1,20.1c0,0,1.7,6.1,7.9,4.2c6.1-1.7,9.5,2.3,9.9,2.6c0.6,0.6-1.5-5-5.8-7.6c-2.6-1.4-1-3.8-0.8-4.7
	c0,0,2.1,1.4,3.6-0.8c1.4,0.3,2.3-0.2,3.4,0.2c0.7,0.3,3.7,0.1,2.6-1.5c0.7-0.5,0.8-0.3,1.1-1c0.2-0.8-0.2-1-0.4-1.2
	c0-0.5-0.5-0.7-1-0.4c-1.2-0.2-2.4-0.1-3-0.2c-1.3-0.2-2.4-0.9-2.4-0.9c0.2-0.2,0.1-0.7-0.9-0.7c-0.6-0.2-1.1-0.5-1.6-0.5
	c-0.4,0-0.5-0.4-0.5-0.4c-0.3-0.1-0.7-0.7-0.7-1.6c0-0.6-1,0.1-1,1.1c0,1.1-1,1.3-1,1.3s-0.4-0.4-0.5-1c-0.1-0.6-0.8-1.6-1.2-0.4
	C9.3,8,9.3,8.3,9.2,8.9c-0.2,1.3-0.1,1.4-0.1,1.4l-5.5,4L2.1,20.1z"/>
<path class="st2" d="M15.3,9.7c0.3-0.1,0.2-0.1,0.2-0.1C15,9.7,13.8,9.7,13,9.4c0.1,0,0.4,0.2,0.5,0.2c0,0.1,0,0.2,0.5,0.5
	c0.4,0.1,1,0.1,1.2-0.1C15.2,9.7,15.2,9.8,15.3,9.7L15.3,9.7z"/>
<path class="st3" d="M20.7,13c-0.5-0.4-0.8,0-1.1-0.1c0.2-0.1,0.6-0.3,1.4-0.3c0.4,0,0.7,0.4,0.9,0.4c0.2,0,0.8-0.3,0.9-0.4
	c-0.2,0.1,0.1,0.3-0.1,0.5c0,0.1-0.1,0.3-0.5,0.3C22,13.5,21.4,13.7,20.7,13L20.7,13z"/>
<path class="st4" d="M10.3,6.5c0,0-0.6,1.4,0.1,2.6c0.6,1.2,0.1-1.2,0.8-0.7c0.6,0.1-0.4-0.5-0.3-1.3C10.8,6.6,10.5,6.2,10.3,6.5
	L10.3,6.5z M21.2,11c0,0.2-0.2,0.3-0.5,0.3c0.6-0.2,0-0.8-0.5-0.3c0-0.2,0.2-0.3,0.5-0.3S21.2,10.8,21.2,11L21.2,11z"/>
<path class="st4" d="M20.3,10.6c0.6,0,1.1,0.1,0.9,0.5c0.1-0.2,0.2-0.5-0.2-0.6C20.8,10.4,20.5,10.4,20.3,10.6L20.3,10.6z"/>
<path class="st4" d="M0,0.5"/>
<path class="st5" d="M13.9,7.6c0,0,0,1.3,1.1,0.4c0.6,0,0.3-0.7,0.3-0.7c0.4-0.1,0.5-0.6,0.3-1c0.5,0,0.4-0.8,0.4-1.1
	c0.4-0.2,0.5-0.6,0.3-1c0.5-0.1,0.5-0.7,0.5-1.1c0.5,0,0.4-0.9,0.4-1.1c0.4-0.3,0.3-0.7,0.4-1.1c0.3-0.5-0.1-0.7-0.4-0.1
	c-0.3,0.5-0.6,0.7-0.6,1.1c0.1,0.2-1,0.5-0.6,1.2c-0.2,0.3-0.8,0.7-0.6,1.1C15.4,4.5,14.7,5,15,5.5c-0.7,0.5-0.6,0.6-0.5,1
	C14.1,6.7,13.7,7.2,13.9,7.6L13.9,7.6z"/>
<path class="st6" d="M16.9,1.6c0,0-0.1,0.2-0.1,0.4c0,0.1,0.4,0.1,0.5,0C17,1.9,16.8,2,16.9,1.6L16.9,1.6z M16.2,2.7
	c0,0-0.1,0.2,0,0.4c0.1,0.2,0.5,0.2,0.6,0C16.5,3.1,16.1,3.1,16.2,2.7z M15.7,3.8c0,0-0.2,0.2-0.1,0.4c0,0.1,0.5,0.2,0.6,0
	C15.9,4.2,15.6,4.2,15.7,3.8z M15.2,5c0,0-0.2,0.3,0,0.5c0.2,0.1,0.6,0,0.8-0.1C15.6,5.4,15.1,5.4,15.2,5z M14.7,5.9
	c0,0-0.3,0.2,0,0.6c0.2,0.1,0.8,0,0.9-0.1C15.3,6.4,14.5,6.2,14.7,5.9z M14.1,7.1c0,0-0.2,0.3,0,0.5c0.2,0.1,1,0,1.1-0.2
	C15,7.4,14,7.5,14.1,7.1L14.1,7.1z"/>
<path class="st0" d="M13.9,7.6c-0.1-0.1-0.1-0.2-0.1-0.3c0,0,0.1-0.7-2.8,0c-0.2,0.1,0.4,0.8,0.4,0.8s0.1,0,0.2-0.1
	c0,0.2,0.1,0.7,0,0.8C12,8.7,12.1,8.5,12,8.1c0.4,0.1,0.6,0.3,0.8,0.6c0.1-0.2,0.1-0.5-0.1-0.7c0.4,0,0.7,0.3,0.9,0.5
	c0-0.2,0.1-0.3,0-0.5c0.2,0.1,0.4,0.3,0.6,0.5C14.3,8.6,14.3,7.9,13.9,7.6L13.9,7.6z"/>
<path class="st7" d="M11.2,12.3c0,0,1.1,2.3,3,2.4s1.8-0.5,1.8-0.5S13.4,14.7,11.2,12.3L11.2,12.3z M11.8,13.6
	c0.4,0.5,0.8,0.9,1.3,1.1c0,0-1.2,1.9-0.6,3.4c0.6,1.5,2.2,1.9,3.9,3.6c1.3,1.3,2.9,4.2,2.9,4.2s-3-2.4-5-2.3c0,0-0.5-1.6-1.8-3
	C10.6,18.7,9.8,16.2,11.8,13.6L11.8,13.6z"/>
<path class="st8" d="M8.6,8.9c-0.7,0.4-1.4,1.2-4.1,1.4c-2.9,1.1-4.6,4.5-4,6.8c0.2,1.2,0.7,2.4,0.7,2.4c-0.1-1-0.2-1.9,0.2-2.3
	c0.2,0.4,0.5,0.4,0.8,0.4c-0.3-0.4-0.3-0.8,0-1.2c0.3,0.3,0.5,0.3,0.8,0.2c-0.4-0.4-0.3-0.8,0-1.2c0.2,0.8,0.8,1.3,1.3,1.6
	c-0.4-0.7-0.7-1.5-0.5-2.2C3.8,15,4,15,4.3,14.9c-0.2-0.3-0.2-0.5,0-0.8c0.5,0.5,1.1,0.6,1.6,0.8c-0.4-0.4-0.9-0.8-1.1-1.6
	c0.3-0.3,0.6-0.5,0.9-0.4c-0.3-0.2-0.3-0.4,0-0.7c0.4,0.2,0.7,0.2,1.1,0.2C6.2,12.1,5.3,11.5,8.6,8.9L8.6,8.9z"/>
<path class="st9" d="M13.1,5.8c0.2-0.2,0.2-0.1,0.1,0c-0.2,0.4,0.1,0.8,0.1,1l-0.7,0C12.7,6.5,12.8,6.1,13.1,5.8L13.1,5.8z"/>
<text transform="matrix(1 0 0 1 90.4069 314.5117)" style="font-family:'MyriadPro-Regular'; font-size:12px;">&lt;!-- Generator: Adobe Illustrator 25.3.1, SVG Export Plug-In . SVG Version: 6.00 Build 0)  --&gt;</text>
</svg>
