<svg xmlns="http://www.w3.org/2000/svg" viewBox="0 0 24 26.46"><defs><style>.cls-1{fill:#a04d32;}.cls-2{fill:#7a9;}.cls-3,.cls-4,.cls-5{fill:#314b49;}.cls-3,.cls-4{stroke:#314b49;}.cls-3{stroke-linecap:round;stroke-linejoin:round;stroke-width:0.13px;}.cls-4{stroke-miterlimit:15.12;stroke-width:0.08px;}.cls-6{fill:#796958;}.cls-10,.cls-7,.cls-9{fill:#fff;}.cls-10,.cls-8,.cls-9{isolation:isolate;}.cls-8{opacity:0.26;}.cls-9{opacity:0.18;}.cls-10{opacity:0.27;}</style></defs><g id="Layer_2" data-name="Layer 2"><g id="Layer_1-2" data-name="Layer 1"><path class="cls-1" d="M23.59,9.79c0-.53-.48-.73-1-.35a21.9,21.9,0,0,0-3-.17,6.68,6.68,0,0,1-2.38-.87c.16-.21.08-.66-.93-.69-.28-.09-.56-.22-.83-.33a.73.73,0,0,0,0-.48.69.69,0,0,0,.31-1c.52,0,.44-.8.37-1.08a.73.73,0,0,0,.3-1c.49-.12.51-.7.46-1.11.51,0,.44-.92.44-1.11.44-.28.34-.66.41-1.11.28-.55-.09-.7-.35-.12s-.64.73-.64,1.11c.13.21-1,.52-.61,1.19-.24.3-.81.68-.6,1.14-.11.22-.83.74-.52,1.24-.68.46-.64.56-.5,1a1.55,1.55,0,0,0-.5.52,2.21,2.21,0,0,1-.44-1.4c0-.55-1,.06-1,1.15a2.11,2.11,0,0,1,0,.26,12.13,12.13,0,0,0-1.37.25s0,0,0,.05A1.72,1.72,0,0,1,11,6.6C11,6,10.21,5,9.85,6.19a10.32,10.32,0,0,0-.36,1l-.16.1c-.44.28-.6,1.13-2.21,1.67a9,9,0,0,1-2.19.41C3.31,9.48.22,12.27,0,14.94a10,10,0,0,0,.61,3.77h0v0s0,0,0,.06.1.24.15.35a3.93,3.93,0,0,0,1.35,1.67,3.72,3.72,0,0,0,.74.47C3.88,22.94,6,25.05,10,23.8a9.67,9.67,0,0,1,9.9,2.62c.57.58-1.49-5-5.85-7.57-2.58-1.41-1-3.83-.77-4.68a2.47,2.47,0,0,0,3.56-.77c1.35.35,2.26-.25,3.42.18.71.31,3.68.12,2.58-1.54.69-.46.77-.31,1.11-1a1.19,1.19,0,0,0-.36-1.25ZM11.71,7.55h0l0,0Zm-2.27.76,0,.21q0-.21,0-.45C9.43,8.14,9.44,8.22,9.44,8.31Zm1.81-1.07a3.29,3.29,0,0,0,.28.37A1.42,1.42,0,0,1,11.25,7.24Z"/><path class="cls-2" d="M2.13,19.63S3.82,25.73,10,23.8a9.67,9.67,0,0,1,9.9,2.62c.57.58-1.49-5-5.85-7.57-2.58-1.41-1-3.83-.77-4.68a2.47,2.47,0,0,0,3.56-.77c1.35.35,2.26-.25,3.42.18.71.31,3.68.12,2.58-1.54.69-.46.77-.31,1.11-1a1.19,1.19,0,0,0-.36-1.25c0-.53-.48-.73-1-.35a21.9,21.9,0,0,0-3-.17,6.68,6.68,0,0,1-2.38-.87c.16-.21.08-.66-.93-.69a6.91,6.91,0,0,0-1.57-.53.5.5,0,0,1-.49-.43,1.89,1.89,0,0,1-.66-1.6c0-.55-1,.06-1,1.15a1.31,1.31,0,0,1-1,1.31,1.7,1.7,0,0,1-.49-1C11,6,10.21,5,9.85,6.19a7.6,7.6,0,0,0-.69,2.22C8.93,9.72,9.1,9.77,9.1,9.77l-5.55,4Z"/><path class="cls-3" d="M15.26,9.25c.26-.1.15-.07.19-.1A5.38,5.38,0,0,1,13,9c.07,0,.43.16.48.19s0,.24.5.46a1.41,1.41,0,0,0,1.15-.09c0-.29,0-.18.1-.27Z"/><path class="cls-4" d="M20.73,12.48c-.48-.35-.83,0-1.1-.07a2.74,2.74,0,0,1,1.4-.34c.43,0,.65.37.94.37a2.39,2.39,0,0,0,.87-.4c-.17.14.07.29-.09.5a.69.69,0,0,1-.45.35,1.23,1.23,0,0,1-1.57-.41Z"/><path class="cls-5" d="M10.32,6.07a3.43,3.43,0,0,0,.06,2.59c.62,1.24.08-1.15.79-.7.57.06-.4-.55-.34-1.32,0-.49-.3-.88-.51-.57Zm10.89,4.46c0,.19-.23.34-.51.34.6-.19,0-.78-.52-.34,0-.19.23-.34.52-.34s.51.15.51.34Z"/><path class="cls-5" d="M20.34,10.09c.63,0,1.07.06.93.53.09-.19.22-.47-.17-.59a1.06,1.06,0,0,0-.76.06Z"/><path class="cls-6" d="M13.93,7.11s0,1.26,1.14.44c.61,0,.34-.65.34-.65a.69.69,0,0,0,.31-1c.52,0,.44-.8.37-1.08a.73.73,0,0,0,.3-1c.49-.12.51-.7.46-1.11.51,0,.44-.92.44-1.11.44-.28.34-.66.41-1.11.28-.55-.09-.7-.35-.12s-.64.73-.64,1.11c.13.21-1,.52-.61,1.19-.24.3-.81.68-.6,1.14-.11.22-.83.74-.52,1.24-.68.46-.64.56-.5,1-.36.23-.74.7-.55,1.08Z"/><path class="cls-7" d="M16.94,1.15a1,1,0,0,0-.12.36c0,.14.37.09.49,0-.27,0-.5.05-.37-.32Zm-.72,1.06a.4.4,0,0,0,0,.39c.07.17.48.16.6,0C16.52,2.63,16.09,2.58,16.22,2.21ZM15.69,3.3a.5.5,0,0,0-.08.44c0,.14.48.16.61,0C15.94,3.77,15.6,3.68,15.69,3.3Zm-.52,1.21a.39.39,0,0,0,0,.5.75.75,0,0,0,.76-.13C15.63,4.89,15.08,4.89,15.17,4.51Zm-.5,1a.39.39,0,0,0,0,.56,1.06,1.06,0,0,0,.9-.1C15.29,5.94,14.55,5.71,14.67,5.48Zm-.54,1.14a.37.37,0,0,0,0,.49A1.6,1.6,0,0,0,15.25,7C15,7,14,7,14.13,6.62Z"/><path class="cls-1" d="M13.94,7.13a.28.28,0,0,1-.06-.29s.06-.7-2.76,0c-.18.13.41.8.41.8s.07,0,.17-.07c.05.19.15.69,0,.77A.65.65,0,0,0,12,7.62a1,1,0,0,1,.79.63.77.77,0,0,0-.07-.69,1.47,1.47,0,0,1,.91.53.85.85,0,0,0,0-.5,1.48,1.48,0,0,1,.63.5,1.31,1.31,0,0,0-.35-1Z"/><path class="cls-8" d="M11.24,11.8s1.14,2.3,3,2.37S16,13.7,16,13.7a5.42,5.42,0,0,1-4.8-1.9Zm.53,1.3a3,3,0,0,0,1.3,1.08s-1.24,1.88-.61,3.38,2.22,1.87,3.95,3.6a23.49,23.49,0,0,1,2.9,4.22s-3-2.4-5-2.28a7.45,7.45,0,0,0-1.79-3c-1.9-1.9-2.73-4.38-.77-7Z"/><path class="cls-9" d="M8.6,8.47A6.58,6.58,0,0,1,4.47,9.84C1.59,11-.17,14.35.45,16.68a16.56,16.56,0,0,0,.66,2.4c-.15-1-.23-1.93.17-2.3a.79.79,0,0,0,.77.42,1,1,0,0,1,0-1.22.72.72,0,0,0,.76.23.86.86,0,0,1,0-1.22A2.75,2.75,0,0,0,4.1,16.62a3.08,3.08,0,0,1-.49-2.2.66.66,0,0,0,.64,0,.66.66,0,0,1,0-.8,3,3,0,0,0,1.6.76,3,3,0,0,1-1.14-1.6.9.9,0,0,1,.92-.38c-.33-.2-.28-.43,0-.69a1.74,1.74,0,0,0,1.06.19c-.47-.28-1.42-.84,1.91-3.43Z"/><path class="cls-10" d="M13.09,5.29c.17-.17.19-.11.14,0a1.45,1.45,0,0,0,.14,1l-.66,0a1.46,1.46,0,0,1,.38-1.11Z"/></g></g></svg>